<?xml version="1.0" encoding="UTF-8"?><svg id="Layer_2" xmlns="http://www.w3.org/2000/svg" xmlns:xlink="http://www.w3.org/1999/xlink" viewBox="0 0 551.59 551.51"><defs><style>.cls-1{fill:url(#linear-gradient);}.cls-2{fill:url(#linear-gradient-8);}.cls-3{fill:url(#linear-gradient-9);}.cls-4{fill:url(#linear-gradient-3);}.cls-5{fill:url(#linear-gradient-4);}.cls-6{fill:url(#linear-gradient-2);}.cls-7{fill:url(#linear-gradient-6);}.cls-8{fill:url(#linear-gradient-7);}.cls-9{fill:url(#linear-gradient-5);}.cls-10{fill:url(#linear-gradient-12);}.cls-11{fill:url(#linear-gradient-10);}.cls-12{fill:url(#linear-gradient-11);}</style><linearGradient id="linear-gradient" x1="275.8" y1="275.71" x2="275.8" y2="551.51" gradientTransform="matrix(1, 0, 0, 1, 0, 0)" gradientUnits="userSpaceOnUse"><stop offset="0" stop-color="#fff" stop-opacity=".6"/><stop offset="1" stop-color="#000" stop-opacity="0"/></linearGradient><linearGradient id="linear-gradient-2" x1="275.8" y1="275.8" x2="275.8" y2="0" xlink:href="#linear-gradient"/><linearGradient id="linear-gradient-3" x1="407.4" y1="275.79" x2="407.4" y2="95.68" xlink:href="#linear-gradient"/><linearGradient id="linear-gradient-4" x1="275.8" y1="365.77" x2="539.01" y2="365.77" xlink:href="#linear-gradient"/><linearGradient id="linear-gradient-5" x1="144.19" x2="144.19" y2="455.82" xlink:href="#linear-gradient"/><linearGradient id="linear-gradient-6" x1="275.8" y1="185.71" x2="12.58" y2="185.71" xlink:href="#linear-gradient"/><linearGradient id="linear-gradient-7" x1="185.74" x2="185.74" y2="538.93" xlink:href="#linear-gradient"/><linearGradient id="linear-gradient-8" x1="365.85" y1="275.78" x2="365.85" y2="12.57" xlink:href="#linear-gradient"/><linearGradient id="linear-gradient-9" x1="275.8" y1="275.71" x2="551.59" y2="275.71" xlink:href="#linear-gradient"/><linearGradient id="linear-gradient-10" x1="365.85" x2="365.85" y2="538.93" xlink:href="#linear-gradient"/><linearGradient id="linear-gradient-11" x1="275.8" y1="275.71" x2="0" y2="275.71" xlink:href="#linear-gradient"/><linearGradient id="linear-gradient-12" x1="185.71" y1="275.72" x2="185.71" y2="12.51" xlink:href="#linear-gradient"/></defs><g id="Layer_1-2"><polygon class="cls-1" points="275.8 275.71 227.06 551.51 324.53 551.51 275.8 275.71"/><polygon class="cls-6" points="275.8 275.8 324.53 0 227.06 0 275.8 275.8"/><polygon class="cls-4" points="275.8 275.79 539.01 180.09 490.28 95.68 275.8 275.79"/><polygon class="cls-5" points="275.8 275.71 490.28 455.82 539.01 371.41 275.8 275.71"/><polygon class="cls-9" points="275.8 275.71 12.58 371.41 61.32 455.82 275.8 275.71"/><polygon class="cls-7" points="275.8 275.76 61.32 95.66 12.58 180.07 275.8 275.76"/><polygon class="cls-8" points="275.8 275.71 95.69 490.19 180.1 538.93 275.8 275.71"/><polygon class="cls-2" points="275.8 275.78 455.9 61.3 371.49 12.57 275.8 275.78"/><polygon class="cls-3" points="275.8 275.71 551.59 324.45 551.59 226.98 275.8 275.71"/><polygon class="cls-11" points="275.8 275.71 371.49 538.93 455.9 490.19 275.8 275.71"/><polygon class="cls-12" points="275.8 275.71 0 226.98 0 324.45 275.8 275.71"/><polygon class="cls-10" points="275.77 275.72 180.07 12.51 95.66 61.24 275.77 275.72"/></g></svg>